<?xml version="1.0" standalone="no"?>
<!DOCTYPE svg PUBLIC "-//W3C//DTD SVG 1.1//EN" "http://www.w3.org/Graphics/SVG/1.1/DTD/svg11.dtd">
<svg t="1511504319223" class="icon" style="" 
viewBox="0 0 1024 1024" version="1.1" 
xmlns="http://www.w3.org/2000/svg" p-id="3230" ·
xmlns:xlink="http://www.w3.org/1999/xlink" width="64" height="64">
<defs>
<style type="text/css">
</style>
</defs>
<path d="M410.409921 284.172249h74.892686l153.585002 401.760765h-70.393126L531.998047 585.142857H363.814471l-36.596426 100.790157h-70.393126l153.585002-401.760765z m-26.997364 246.975881h128.887414L449.206132 355.065326H447.006347l-63.59379 176.082804zM256.824919 767.925007h382.06269v63.69378H256.824919v-63.69378z m0 0" fill="" >
</path>
<path d="M161.234254 63.59379c-17.598281 0-31.796895-14.298604-31.796894-31.796895 0-17.598281 14.298604-31.796895 31.796894-31.796895h764.125379c25.29753 0 49.595157 10.099014 67.593399 27.997266 17.898252 17.898252 27.997266 42.195879 27.997266 67.493409v764.125378c0 17.598281-14.298604 31.796895-31.796895 31.796895-17.598281 0-31.796895-14.298604-31.796895-31.796895V95.490675c0-8.39918-3.399668-16.498389-9.299092-22.497803-5.999414-5.999414-14.098623-9.299092-22.497803-9.299092H161.234254z m0 0" fill="" >
</path>
<path d="M97.540475 194.780978c-8.39918 0-16.498389 3.399668-22.497803 9.299092-5.999414 5.999414-9.299092 14.098623-9.299092 22.497803v700.531589c0 17.598281 14.298604 31.796895 31.796895 31.796895h700.531588c17.598281 0 31.796895-14.298604 31.796895-31.796895V226.677863c0-17.598281-14.298604-31.796895-31.796895-31.796894H97.540475z m0-63.693779h700.531588c25.29753 0 49.595157 10.099014 67.493409 27.997265s27.997266 42.195879 27.997266 67.593399v700.531589c0 25.29753-10.099014 49.595157-27.997266 67.593399-17.898252 17.898252-42.195879 27.997266-67.493409 27.997266H97.540475c-25.29753 0-49.595157-10.099014-67.493409-27.997266S2.0498 952.606972 2.0498 927.209452V226.677863C2.0498 173.883019 44.845621 131.087199 97.540475 131.087199z m0 0" fill="" >
</path>
</svg>