<?xml version="1.0" standalone="no"?>
<!DOCTYPE svg PUBLIC "-//W3C//DTD SVG 1.1//EN" "http://www.w3.org/Graphics/SVG/1.1/DTD/svg11.dtd">
<svg t="1511504319223" class="icon" style="" 
viewBox="0 0 1024 1024" version="1.1" 
xmlns="http://www.w3.org/2000/svg" p-id="3230" ·
xmlns:xlink="http://www.w3.org/1999/xlink" width="64" height="64">
<defs>
<style type="text/css">
</style>
</defs>
<path d="M412.2 693.8H273.9c-10.2 0-20.5-7.7-20.5-20.5V617c0-10.2 7.7-20.5 20.5-20.5h120.3c10.2 0 20.5-7.7 20.5-20.5s-7.7-20.5-20.5-20.5H273.9c-10.2 0-20.5-7.7-20.5-20.5v-48.6c0-10.2 7.7-20.5 20.5-20.5h130.6c10.2 0 20.5-7.7 20.5-20.5s-7.7-20.5-20.5-20.5H227.8c-10.2 0-20.5 7.7-20.5 20.5v261.1c0 10.2 7.7 20.5 20.5 20.5h184.3c10.2 0 20.5-7.7 20.5-20.5 0-12.7-10.2-12.7-20.4-12.7z m171.5-184.4c-12.8 0-25.6 2.6-35.8 7.7-10.2 5.1-20.5 12.8-28.2 25.6v-28.2h-25.6c-10.2 0-20.5 7.7-20.5 20.5v179.2c0 10.2 7.7 20.5 20.5 20.5h5.1c10.2 0 20.5-7.7 20.5-20.5v-110c2.6-17.9 7.7-30.7 17.9-41 10.2-10.2 20.5-12.8 33.3-12.8 33.3 0 51.2 17.9 51.2 56.3v110.1c0 10.2 7.7 20.5 20.5 20.5h5.1c10.2 0 20.5-7.7 20.5-20.5V601.6c-2.6-64-30.8-92.2-84.5-92.2z m0 0" p-id="1903"></path><path d="M901.1 87H276.5c-69.1 0-122.9 53.8-122.9 122.9v35.8h-51.2C46.1 245.8 0 291.8 0 348.2v486.4C0 890.9 46.1 937 102.4 937H768c56.3 0 102.4-46.1 102.4-102.4v-46.1h30.7c66.6 0 122.9-53.8 122.9-122.9V209.9C1024 140.8 970.2 87 901.1 87z m-81.9 747.6c0 28.2-23 51.2-51.2 51.2H102.4c-28.2 0-51.2-23-51.2-51.2V348.2c0-28.2 23-51.2 51.2-51.2H768c28.2 0 51.2 23 51.2 51.2v486.4z m153.6-169c0 38.4-30.7 71.7-71.7 71.7h-30.7V348.2c0-56.3-46.1-102.4-102.4-102.4H204.8V210c0-38.4 30.7-71.7 71.7-71.7h627.2c38.4 0 71.7 30.7 71.7 71.7v455.7h-2.6z m0 0" p-id="1904">
</path>
</svg>